<svg xmlns="http://www.w3.org/2000/svg" viewBox="0 0 43.5 9"><defs><style>.cls-1{fill:#1d1d1b;}</style></defs><g id="Calque_2" data-name="Calque 2"><g id="Calque_1-2" data-name="Calque 1"><path class="cls-1" d="M.75,9H0V0H1.5V.75H3v1.5H4.5v1.5H3V2.25H1.5V9Zm6,0H6V5.25H4.5V3.75H6V0H7.5V9Z"/><path class="cls-1" d="M11.25,9H9V7.5h.75v-6H9V0h3V1.5h-.75v6H12V9Z"/><path class="cls-1" d="M14.25,1.5h-1.5V0h1.5V1.5ZM13.5,9h-.75V6h1.5V9Zm2.25-6h-1.5V1.5h1.5V3Zm-1.5,3V4.5h1.5V6h-1.5Zm3-1.5h-1.5V3h1.5V4.5Zm0-1.5V1.5h1.5V3h-1.5Zm1.5,3h-1.5V4.5h1.5V6Zm0-4.5V0h1.5V1.5h-1.5ZM19.5,9h-.75V6h1.5V9Z"/><path class="cls-1" d="M27.75,9H21V0h7.5V1.5h-6V3h2.25V4.5H22.5v3h6V9Z"/><path class="cls-1" d="M35.25,9h-6V0h1.5V7.5H36V9Z"/><path class="cls-1" d="M38.25,3h-1.5V1.5h1.5V3Zm3,6h-4.5V7.5H42V9Zm1.5-7.5h-4.5V0H43.5V1.5ZM42,4.5H38.25V3H42V4.5Zm0,3v-3h1.5v3H42Z"/></g></g></svg>