<svg xmlns="http://www.w3.org/2000/svg" viewBox="0 0 507.97 430.86"><defs><style>.cls-1{fill:#1d1d1b;stroke:#fff;stroke-miterlimit:10;stroke-width:5px;}</style></defs><g id="Calque_2" data-name="Calque 2"><g id="Calque_1-2" data-name="Calque 1"><rect class="cls-1" x="280.62" y="11.06" width="36.35" height="36.35" transform="translate(108.19 -202.72) rotate(45)"/><rect class="cls-1" x="306.32" y="36.77" width="36.35" height="36.35" transform="translate(133.9 -213.36) rotate(45)"/><rect class="cls-1" x="332.03" y="62.48" width="36.35" height="36.35" transform="translate(159.6 -224.01) rotate(45)"/><rect class="cls-1" x="409.15" y="139.59" width="36.35" height="36.35" transform="translate(236.72 -255.95) rotate(45)"/><rect class="cls-1" x="434.85" y="165.3" width="36.35" height="36.35" transform="translate(262.42 -266.6) rotate(45)"/><rect class="cls-1" x="460.56" y="191" width="36.35" height="36.35" transform="translate(288.13 -277.25) rotate(45)"/><rect class="cls-1" x="254.91" y="36.77" width="36.35" height="36.35" transform="translate(118.84 -177.01) rotate(45)"/><rect class="cls-1" x="229.21" y="62.48" width="36.35" height="36.35" transform="translate(129.49 -151.3) rotate(45)"/><rect class="cls-1" x="152.09" y="139.59" width="36.35" height="36.35" transform="translate(161.43 -74.19) rotate(45)"/><rect class="cls-1" x="126.39" y="165.3" width="36.35" height="36.35" transform="translate(172.08 -48.48) rotate(45)"/><rect class="cls-1" x="434.85" y="216.71" width="36.35" height="36.35" transform="translate(298.78 -251.54) rotate(45)"/><rect class="cls-1" x="409.15" y="242.41" width="36.35" height="36.35" transform="translate(309.42 -225.84) rotate(45)"/><rect class="cls-1" x="332.03" y="319.53" width="36.35" height="36.35" transform="translate(341.37 -148.72) rotate(45)"/><rect class="cls-1" x="306.32" y="345.23" width="36.35" height="36.35" transform="translate(352.01 -123.02) rotate(45)"/><rect class="cls-1" x="100.68" y="191" width="36.35" height="36.35" transform="translate(182.72 -22.78) rotate(45)"/><rect class="cls-1" x="126.39" y="216.71" width="36.35" height="36.35" transform="translate(208.43 -33.43) rotate(45)"/><rect class="cls-1" x="152.09" y="242.41" width="36.35" height="36.35" transform="translate(234.13 -44.07) rotate(45)"/><rect class="cls-1" x="229.21" y="319.53" width="36.35" height="36.35" transform="translate(311.25 -76.02) rotate(45)"/><rect class="cls-1" x="254.91" y="345.23" width="36.35" height="36.35" transform="translate(336.96 -86.66) rotate(45)"/><rect class="cls-1" x="280.62" y="370.94" width="36.35" height="36.35" transform="translate(362.66 -97.31) rotate(45)"/><rect class="cls-1" x="191" y="23.56" width="36.35" height="36.35" transform="translate(90.78 -135.69) rotate(45)"/><rect class="cls-1" x="216.71" y="49.27" width="36.35" height="36.35" transform="translate(116.49 -146.33) rotate(45)"/><rect class="cls-1" x="242.41" y="74.98" width="36.35" height="36.35" transform="translate(142.19 -156.98) rotate(45)"/><rect class="cls-1" x="319.53" y="152.09" width="36.35" height="36.35" transform="translate(219.31 -188.92) rotate(45)"/><rect class="cls-1" x="345.23" y="177.8" width="36.35" height="36.35" transform="translate(245.01 -199.57) rotate(45)"/><rect class="cls-1" x="370.94" y="203.5" width="36.35" height="36.35" transform="translate(270.72 -210.22) rotate(45)"/><rect class="cls-1" x="165.3" y="49.27" width="36.35" height="36.35" transform="translate(101.43 -109.98) rotate(45)"/><rect class="cls-1" x="139.59" y="74.98" width="36.35" height="36.35" transform="translate(112.08 -84.28) rotate(45)"/><rect class="cls-1" x="62.48" y="152.09" width="36.35" height="36.35" transform="translate(144.02 -7.16) rotate(45)"/><rect class="cls-1" x="36.77" y="177.8" width="36.35" height="36.35" transform="translate(154.67 18.55) rotate(45)"/><rect class="cls-1" x="345.23" y="229.21" width="36.35" height="36.35" transform="translate(281.37 -184.51) rotate(45)"/><rect class="cls-1" x="319.53" y="254.91" width="36.35" height="36.35" transform="translate(292.02 -158.81) rotate(45)"/><rect class="cls-1" x="242.41" y="332.03" width="36.35" height="36.35" transform="translate(323.96 -81.69) rotate(45)"/><rect class="cls-1" x="216.71" y="357.73" width="36.35" height="36.35" transform="translate(334.61 -55.99) rotate(45)"/><rect class="cls-1" x="11.06" y="203.5" width="36.35" height="36.35" transform="translate(165.31 44.25) rotate(45)"/><rect class="cls-1" x="36.77" y="229.21" width="36.35" height="36.35" transform="translate(191.02 33.6) rotate(45)"/><rect class="cls-1" x="62.48" y="254.91" width="36.35" height="36.35" transform="translate(216.73 22.96) rotate(45)"/><rect class="cls-1" x="139.59" y="332.03" width="36.35" height="36.35" transform="translate(293.84 -8.99) rotate(45)"/><rect class="cls-1" x="165.3" y="357.73" width="36.35" height="36.35" transform="translate(319.55 -19.63) rotate(45)"/><rect class="cls-1" x="191" y="383.44" width="36.35" height="36.35" transform="translate(345.25 -30.28) rotate(45)"/></g></g></svg>