<?xml version="1.0" encoding="utf-8"?>
<!-- Generator: Adobe Illustrator 25.4.1, SVG Export Plug-In . SVG Version: 6.00 Build 0)  -->
<svg version="1.1" id="Calque_1" xmlns="http://www.w3.org/2000/svg" xmlns:xlink="http://www.w3.org/1999/xlink" x="0px" y="0px"
	 viewBox="0 0 617.7 205.9" style="enable-background:new 0 0 617.7 205.9;" xml:space="preserve">
<g id="Calque_2_00000084511074472028543440000017523045732005753992_">
	<g id="Calque_1-2">
		<polygon points="0,0.5 617.7,0.5 617.7,12.1 604.6,12.1 604.6,24.4 590.6,24.4 590.6,37.7 577,37.7 577,49.3 562.5,49.3 
			562.5,62.1 548.3,62.1 548.3,74.2 534.5,74.2 534.5,87.5 520.4,87.5 520.4,100.5 507.1,100.5 507.1,114.1 493.3,114.1 
			493.3,126.9 479.3,126.9 479.3,139.5 465,139.5 465,151 452.1,151 452.1,162.8 438.6,162.8 438.6,174.2 425.8,174.2 425.8,186 
			412,186 412,197.1 400.1,197.1 400.1,205.9 0,205.9 		"/>
	</g>
</g>
</svg>
